<mxfile host="app.diagrams.net" modified="2023-11-11T15:09:24.637Z" agent="Mozilla/5.0 (Windows NT 10.0; Win64; x64) AppleWebKit/537.36 (KHTML, like Gecko) Chrome/119.0.0.0 Safari/537.36" version="22.1.0" etag="HRd08XIiNRAgImM4VSux" type="github">
  <diagram name="페이지-1" id="DM_npz4dpeDVd8JW8iC2">
    <mxGraphModel>
      <root>
        <mxCell id="0" />
        <mxCell id="1" parent="0" />
      </root>
    </mxGraphModel>
  </diagram>
</mxfile>
